<?xml version="1.0" encoding="utf-8"?>
<!-- Generator: Adobe Illustrator 24.2.3, SVG Export Plug-In . SVG Version: 6.00 Build 0)  -->
<svg version="1.1" xmlns="http://www.w3.org/2000/svg" xmlns:xlink="http://www.w3.org/1999/xlink" x="0px" y="0px"
	 viewBox="0 0 566.9 727.9" style="enable-background:new 0 0 566.9 727.9;" xml:space="preserve">
<style type="text/css">
	.st0{fill:#FFED00;}
	.st1{fill-rule:evenodd;clip-rule:evenodd;fill:#FFED00;}
	.st2{fill-rule:evenodd;clip-rule:evenodd;}
	.st3{display:none;}
	.st4{display:inline;}
	.st5{fill:none;}
</style>
<g id="TDF-GD-Copenhague2021_x5F_logo">
	<g>
		<path class="st0" d="M81.5,456.7l-0.7,0.2c-14,4.6-24.1,17.8-24.1,33.3v180.9l403.1-131c1.5-0.4,3-0.9,4.5-1.5
			c26.8-9.8,45.9-35.6,45.9-65.8V317.4L81.5,456.7z"/>
		<g>
			<g>
				<g>
					<path d="M109.3,500.5c1.2,3.5,3.4,4.5,6,3.6l0.7-0.2l-0.1-17.8l9.1-2.9l0.3,26.7c-1.9,1.3-4.3,2.5-7.6,3.6
						c-9.1,2.9-15.2,0.4-17.9-7.7c-4.9-14.7,0-35.1,16.6-40.5c3-1,6.4-1.1,8-0.3l0.4,9.6c-1.7-0.8-4-0.6-6.3,0.2
						C108.1,478.1,106.6,492,109.3,500.5z"/>
					<path d="M151.7,479l6.8,20.5l-10.1,3.3l-7.4-24.6l0.1,27l-9.5,3.1l-0.2-47.1l13.2-4.3c6.4-2.1,11.6-0.8,13.4,4.8
						C160.1,467.8,158.2,474.4,151.7,479z M149.1,467.2c-0.7-2-2.1-2.2-4.1-1.5l-4,1.3l0,9.1l3.6-1.2
						C148.3,473.7,150.3,470.8,149.1,467.2z"/>
					<path d="M194.8,487.7l-9.4,3l-2.3-14.3l-8.7,2.8l-2.3,15.8l-9.4,3.1l7.1-49.5L187,443L194.8,487.7z M181.6,467.5l-2.9-18.4
						l-2.9,20.3L181.6,467.5z"/>
					<path d="M232.6,428.2l0.2,47.1l-16.9,5.5l-7.6-40.6l0.2,43l-8.8,2.9l-0.2-47.1l16.9-5.5L224,474l-0.2-43L232.6,428.2z"/>
					<path d="M239.2,426.1l8.4-2.7c13.1-4.2,19.4,1,19.5,15.5l0,2.9c0,17.4-6.7,24.5-18.5,28.4l-9.2,3L239.2,426.1z M250.2,460.5
						c3.8-1.2,7.3-4.7,7.2-16.4l0-2.6c0-8.3-2-11.5-7.2-9.8l-1.6,0.5l0,28.7L250.2,460.5z"/>
					<path d="M283.9,411.6l8.4-2.7c13.1-4.2,19.4,1,19.5,15.5l0,2.9c0,17.4-6.7,24.5-18.5,28.4l-9.2,3L283.9,411.6z M294.9,445.9
						c3.8-1.2,7.3-4.7,7.2-16.4l0-2.6c0-8.3-2-11.5-7.2-9.8l-1.6,0.5l0,28.7L294.9,445.9z"/>
					<path d="M326.4,407.5l0.1,8.6l12-3.9l0.1,9.8l-12,3.9l0,9.1l12.6-4.1l0.1,9.8l-22.4,7.3l-0.2-47.1l22.4-7.3l0.1,9.8
						L326.4,407.5z M333.4,393.3l-9.5,3.1l3.2-5.2l9.5-3.1L333.4,393.3z"/>
					<path d="M371.7,392.5c3,9.2-1.6,18.7-13.2,22.5l-4.1,1.3l0.1,19.4l-9.8,3.2l-0.2-47.1l13.6-4.4
						C364.7,385.3,369.8,386.6,371.7,392.5z M363,398.1c-0.7-2.1-2.2-2.2-4.5-1.5l-4.2,1.4l0.1,9l3.8-1.2
						C361.8,404.6,364.2,401.8,363,398.1z"/>
					<path d="M405.6,419.2l-9.4,3l-2.3-14.3l-8.7,2.8l-2.3,15.8l-9.4,3.1l7.1-49.5l17.1-5.6L405.6,419.2z M392.4,399l-2.9-18.4
						l-2.9,20.3L392.4,399z"/>
					<path d="M430.5,388.4l6.8,20.5l-10.1,3.3l-7.4-24.6l0.1,27l-9.5,3.1l-0.2-47.1l13.2-4.3c6.4-2.1,11.6-0.8,13.4,4.8
						C439,377.2,437,383.8,430.5,388.4z M428,376.6c-0.7-2-2.1-2.2-4.1-1.5l-4,1.3l0,9.1l3.6-1.2C427.1,383.1,429.1,380.2,428,376.6
						z"/>
					<path d="M468.4,361.4l-8.5,2.8l0.1,37.4l-9.8,3.2l-0.1-37.4l-8.9,2.9l0-9.8l27.2-8.8L468.4,361.4z"/>
				</g>
				<g>
					<path d="M123.9,557.4c-4.5-13.8-1-35.3,13.8-40.1c3.2-1,5.7-0.9,7.3-0.3l0.4,10.2c-1.3-0.7-2.9-0.8-4.9-0.2
						c-8.5,2.8-9.7,16.9-7.2,24.4c1.2,3.6,3.4,4.5,6.2,3.6c2.5-0.8,4-2,5.4-3.5l0.3,9.8c-1.2,2.1-4,3.6-6.6,4.4
						C132.2,567.7,126.6,565.5,123.9,557.4z"/>
					<path d="M149.9,549.6c-4.5-13.8-1.5-35.8,13.2-40.5c6.2-2,12.1-0.5,14.7,7.6c4.2,13,1.4,35.8-13.4,40.6
						C158.2,559.3,152.6,557.7,149.9,549.6z M168.5,521.2c-0.9-2.7-2.4-3.4-4.3-2.7c-7.1,2.3-6.8,20.5-4.9,26.5c1,3,2.6,3.7,4.4,3.1
						C170.7,545.8,170.2,526.7,168.5,521.2z"/>
					<path d="M211.8,503.5c3,9.2-1.6,18.7-13.2,22.5l-4.1,1.3l0.1,19.4l-9.8,3.2l-0.2-47.1l13.6-4.4
						C204.8,496.3,209.8,497.5,211.8,503.5z M203.1,509.1c-0.7-2.1-2.2-2.2-4.5-1.5l-4.2,1.4l0.1,9l3.8-1.2
						C201.9,515.6,204.3,512.8,203.1,509.1z"/>
					<path d="M227.3,498.7l0.1,8.6l12-3.9l0.1,9.8l-12,3.9l0,9.1l12.6-4.1l0.1,9.8l-22.4,7.3l-0.2-47.1l22.4-7.3l0.1,9.8
						L227.3,498.7z"/>
					<path d="M278.5,472.3l0.2,47.1l-16.9,5.5l-7.6-40.6l0.2,43l-8.8,2.9l-0.2-47.1l16.9-5.5l7.6,40.6l-0.2-43L278.5,472.3z"/>
					<path d="M314.7,460.6l0.2,47l-10,3.2l0-18.9l-9.7,3.2l0.1,18.9l-10,3.2l-0.2-47l10-3.2l0.1,18.1l9.7-3.2l-0.1-18.1L314.7,460.6
						z"/>
					<path d="M351.8,495.7l-9.4,3l-2.3-14.3l-8.7,2.8l-2.3,15.8l-9.4,3.1l7.1-49.5L344,451L351.8,495.7z M338.6,475.5l-2.9-18.4
						l-2.9,20.3L338.6,475.5z"/>
					<path d="M364.3,476.7c1.2,3.5,3.4,4.5,6,3.6l0.7-0.2l-0.1-17.8l9.1-2.9l0.3,26.7c-1.9,1.3-4.3,2.5-7.6,3.6
						c-9.1,2.9-15.2,0.4-17.9-7.7c-4.9-14.7,0-35.1,16.6-40.5c3-1,6.4-1.1,8-0.3l0.4,9.6c-1.7-0.8-4-0.6-6.3,0.2
						C363.1,454.3,361.6,468.1,364.3,476.7z"/>
					<path d="M386.5,468.6l0-31.4l9.9-3.2l0.1,31.6c0,3.7,1.1,5.6,4.5,4.5c3-1,4.1-3.5,4.1-7.9l0-31.1l9.9-3.2l0,32
						c0,10.7-3.3,16.9-12.9,20.1C391.7,483.4,386.5,478.5,386.5,468.6z"/>
					<path d="M431.1,432.5l0.1,8.6l12-3.9l0.1,9.8l-12,3.9l0,9.1l12.6-4.1l0.1,9.8l-22.4,7.3l-0.2-47.1l22.4-7.3l0.1,9.8
						L431.1,432.5z"/>
				</g>
			</g>
			<g>
				<path d="M84.1,594.8l8.4-2.7c13.1-4.2,19.4,1,19.5,15.5l0,2.9c0,17.4-6.7,24.5-18.5,28.4l-9.2,3L84.1,594.8z M95.1,629.2
					c3.8-1.2,7.3-4.7,7.2-16.4l0-2.6c0-8.3-2-11.5-7.2-9.8l-1.6,0.5l0,28.7L95.1,629.2z"/>
				<path d="M146,621.8l-9.4,3l-2.3-14.3l-8.7,2.8l-2.3,15.8l-9.4,3.1l7.1-49.5l17.1-5.6L146,621.8z M132.9,601.6l-2.9-18.4
					l-2.9,20.3L132.9,601.6z"/>
				<path d="M183.9,562.3l0.2,47.1l-16.9,5.5l-7.6-40.6l0.2,43l-8.8,2.9l-0.2-47.1l16.9-5.5l7.6,40.6l-0.2-43L183.9,562.3z"/>
				<path d="M200.3,566.8l0.1,8.6l12-3.9l0.1,9.8l-12,3.9l0,9.1l12.6-4.1l0.1,9.8l-22.4,7.3l-0.2-47.1l22.4-7.3l0.1,9.8L200.3,566.8
					z"/>
				<path d="M264.5,583.3l-9.1,3l-0.2-41.3l-5.4,43.1l-16.2,5.3l-6.2-40.2l0.2,42.1l-9.1,2.9l-0.2-47.1l17.6-5.7l5.9,41.6l5.7-45.4
					l16.8-5.5L264.5,583.3z"/>
				<path d="M301.4,571.4l-9.4,3l-2.3-14.3l-8.7,2.8l-2.3,15.8l-9.4,3.1l7.1-49.5l17.1-5.6L301.4,571.4z M288.2,551.2l-2.9-18.4
					l-2.9,20.3L288.2,551.2z"/>
				<path d="M326.4,540.6l6.8,20.5l-10.1,3.3l-7.4-24.6l0.1,27l-9.5,3.1l-0.2-47.1l13.2-4.3c6.4-2.1,11.6-0.8,13.4,4.8
					C334.8,529.4,332.9,536,326.4,540.6z M323.8,528.8c-0.7-2-2.1-2.2-4.1-1.5l-4,1.3l0,9.1l3.6-1.2
					C322.9,535.3,325,532.3,323.8,528.8z"/>
				<path d="M358.4,529.7l8.2,20.5l-9.8,3.2l-7.8-21.3l0.1,23.8l-10,3.2l-0.2-47.1l10-3.2l0.1,21.4l6.9-23.6l10.8-3.5L358.4,529.7z"
					/>
				<path d="M395.9,530.5l8.9-2.9l0,10.1l-22.6,7.3l-0.1-2.4l8.6-20.8c3.5-8.7,4.1-11.3,3.2-14.3c-0.8-2.5-2.8-3-5.6-2.1
					c-2.8,0.9-4.7,2.5-5.9,3.9l-0.3-10.3c1.7-1.6,4.2-3.2,7.7-4.3c5.9-1.9,11.2,0.1,13.1,6c2,6.2,0.4,12.3-4.1,23.1L395.9,530.5z"/>
				<path d="M409.3,525.4c-4.3-13.3-2-36.2,12-40.7c5.6-1.8,10.6-0.7,13,6.7c4.2,12.9,1.6,36.8-12.1,41.3
					C416.7,534.5,411.8,533,409.3,525.4z M425.2,496.4c-0.7-2-1.7-2.5-3-2c-6,2-5.3,21.2-3.7,26.3c0.7,2.1,1.7,2.6,2.9,2.2
					C427.1,521.1,426.7,501.1,425.2,496.4z"/>
				<path d="M451.9,512.3l8.9-2.9l0,10.1l-22.6,7.3l-0.1-2.4l8.6-20.8c3.5-8.7,4.1-11.3,3.2-14.3c-0.8-2.5-2.8-3-5.6-2.1
					c-2.8,0.9-4.7,2.5-5.9,3.9l-0.3-10.3c1.7-1.6,4.2-3.2,7.7-4.3c5.9-1.9,11.2,0.1,13.1,6c2,6.2,0.4,12.3-4.1,23.1L451.9,512.3z"/>
				<path d="M479.1,503.5l8.9-2.9l0,10.1l-22.6,7.3l-0.1-2.4l8.6-20.8c3.5-8.7,4.1-11.3,3.2-14.3c-0.8-2.5-2.8-3-5.6-2.1
					c-2.8,0.9-4.7,2.5-5.9,3.9l-0.3-10.3c1.7-1.6,4.2-3.2,7.7-4.3c5.9-1.9,11.2,0.1,13.1,6c2,6.2,0.4,12.3-4.1,23.1L479.1,503.5z"/>
			</g>
		</g>
		
			<ellipse transform="matrix(7.774114e-02 -0.997 0.997 7.774114e-02 264.503 594.3496)" class="st1" cx="453.5" cy="154.2" rx="56.7" ry="56.7"/>
		<g>
			<path class="st2" d="M186.7,196c-1,30.7,23.1,56.3,53.6,57.3c30.6,1,56.2-23.1,57.1-53.8c1-30.7-23.1-56.3-53.6-57.3
				C213.3,141.3,187.7,165.4,186.7,196z M279.4,194.7c-0.7,20.8-18,37.2-38.8,36.5c-20.8-0.7-37.1-18.1-36.4-38.9
				c0.7-20.8,18-37.2,38.8-36.5C263.7,156.4,280,173.8,279.4,194.7z"/>
			<path class="st2" d="M235.6,190.6c0,4.2,3.3,7.6,7.5,7.6c4.2,0,7.6-3.3,7.6-7.5c0-4.2-3.3-7.6-7.5-7.6
				C239,183,235.6,186.4,235.6,190.6z"/>
			<path class="st2" d="M329.9,158.9c7.9-14.2,14.5-75.1,14.5-75.1s-16.8,65.6-32.1,64.6c-9.9-0.4-28.2-42.1-28.2-42.1
				s1.6,28.6,8,44.5C299.8,169.8,316.9,182.3,329.9,158.9z"/>
			<path class="st2" d="M395.9,205.8c-0.7-8.3-8.9-10.6-13.9-5.4c-4.3,4.5-7.5,13.6-3.5,25.1c1.8,4.4,5.1,6.9,9.4,7.3
				c0.1,0,0.3,0,0.4,0c4.1,0,8.7-3.9,11.6-9.8c2.2-4.4,3.2-9.1,3.2-9.2l0.1-0.4l-1.9-0.6l-0.2,0.4c-1.4,3.4-6.7,13-11.5,12.6
				c-3.7-0.1-4-4.1-4-5.2C390.3,217.3,396.5,212.3,395.9,205.8z M388.9,212.9c-1.7,2.3-4.2,4.1-4.2,4.1c-0.1-3,0.6-9.9,3.7-11.7
				C390.8,204.1,391.2,209.7,388.9,212.9z"/>
			<path class="st2" d="M366.8,230.9c2,3.4,7.6,7.5,8.8,8.3l0.4,0.3l2.6-0.8c0,0-4.9-6.4-7.1-17.2l-3.9-39.8l-1.8,1.5l-3,29.7
				c-1-0.6-2.2-0.8-3.5-0.5c-6.6,1.5-15.8,14.9-17,22.6c-0.6,3.9,2.1,10.9,8.7,11.3C354.6,246.5,360.3,243.6,366.8,230.9z
				 M353.3,237.2c-7.2,4.3,1.9-16.2,5.9-18c2.9-1.3,3.5,3,2.6,5.8C361.1,227.4,356.8,235.1,353.3,237.2z"/>
			<path class="st2" d="M101.8,305.5c13-5.6,27.9-12.3,43.5-20.1c0,0,1.9-3.3,2.3-4.5c0,0-20.9,1.6-44.7,7c0,0,0,0,0,0
				c2.5-34.8,22-58.3,35.4-66.9l-6.7-1.2c-36.4,2.9-53.6,39.9-53.4,74.8c0,0,0,0.1,0,0.2c-7.7,2.7-15.1,5.8-21.6,9.4
				c0,0,0.6,5.5,0.6,9.4c0,3.9-0.6,9.6-0.6,9.6s8.8-3,23-8.6c2.4,27.7,9.4,69.5,21.9,105l3.7,0C105.4,419.5,99.7,356.5,101.8,305.5z
				"/>
			<path class="st2" d="M186,345.4c1.6-10.6-48.3-44.1-53.9-30c-6.6,16.8-8.7,98.2-8.7,98.2l5.1-2.4l18.9-79.9
				c19.9,14.3,23.7,10.1,5,30.7l-1.9,2.1c-0.7,0.8-0.9,1.9-0.6,3l4.8,12.6c0.5,1.3,1.7,2.3,3,2.5l38.7,7.6l-33.1-20.4
				C170.4,363.1,185.2,353.8,186,345.4z"/>
			<path class="st2" d="M325.2,274.5c-12.1,2.2-32,41.6-32,41.6l-11.8-30.9c-0.4,29.9,4.1,68.7,4.1,68.7l8.9,4l29.8-58.8
				c0,0,1.9,14.1,15,44.1l3-1.3C340.5,319.9,342.8,271.3,325.2,274.5z"/>
			<path class="st2" d="M375,298.3c-8.5-25.1,30.9-49.2,30.9-49.2l-0.2-3.7c0,0-53.2,22.1-53.6,52.5c-0.4,24.9,22.3,31.5,44.8,26.4
				c16.5-3.7,29.4-13.8,29.4-13.8l-1.4-0.8C424.9,309.7,383.2,322.4,375,298.3z"/>
			<path class="st2" d="M442.5,288c-5.6-6.9-3.7-16.6-3.7-16.6c22.3-6,37.8-28,35.7-39c-1.7-8.5-14.2-13.5-31.3-1.1
				c-29.9,24-28.2,68.1-4.7,75.3c29.5,7.7,68.3-43.7,71.5-48.1c0.1-0.2,0.2-0.4,0.2-0.7v-2.8C504.7,263.6,455.7,304.3,442.5,288z
				 M462.8,237.1c6.5-0.3-4.2,21.2-23.2,25.9C442.5,248.7,458.9,237.2,462.8,237.1z"/>
			<polygon class="st2" points="488.5,235.6 491.2,235.6 491.2,224.7 494.6,224.7 494.6,222.4 485,222.4 485,224.7 488.5,224.7 			
				"/>
			<path class="st2" d="M506.6,222.3l-3.2,10.1l-0.1,0l-3-10.1l-3.7,0v13.2l2.4,0v-6.1c0-0.7-0.1-2.1-0.2-4.2l0.1,0l3.1,10.4l2.5,0
				l3.3-10.4l0.1,0c-0.1,1.7-0.1,2.7-0.1,3.1c0,0.4,0,0.7,0,1v6.3l2.5,0v-13.2L506.6,222.3z"/>
			<path class="st2" d="M163.1,281.5c16.4-78.9,8.6-121.1,8.4-132.3c8.3-3.5,73.3-38,73.3-38c-21.3,2.6-102.7,22.6-158.6,50.8
				c26.7-1.9,57.3-5.3,67.5-7C150.9,193.5,153.4,250.3,163.1,281.5z"/>
			<path class="st2" d="M457,76.2c5.4,0,9.8-4.3,9.8-9.6c0-5.4-4.3-9.8-9.6-9.8c-5.4,0-9.8,4.3-9.8,9.6S451.7,76.1,457,76.2z"/>
			<path class="st2" d="M339.3,210.8c12.6-26.8,37.9-112.8,39.5-126.6c0.6-5.1,35.2-8.2,43.6-3.7c0,0-22.1,13-27.8,19.8
				c-5.2,6.2-7.4,13,1,18.9c7.9,5.5,55.3,29.6,55.3,29.6l-0.2-4.2L404.3,110c15.9-8.7,39.2-22.4,39.4-30.1c0-0.2,0-0.4,0-0.5
				c0,0,0,0,0,0c0,0,0,0,0,0c0-0.2,0-0.4-0.1-0.6c-0.8-5.7-8.9-15.1-22.1-18c0,0,0,0-0.1,0c-15.6-4-46.5-4.2-59.5,10.5
				c-3.5,4-8.6,32.6-27.7,142.7L339.3,210.8z"/>
			<path class="st2" d="M249.7,325.7L249.7,325.7C249.7,325.7,249.7,325.8,249.7,325.7C249.7,325.8,249.7,325.8,249.7,325.7
				c-0.2,0.3-0.8,1.7-2.3,6.2c-1.7,5.2-3.5,9.9-8,16.7c-7.8,9.8-17.9,17-21.4,13.7c-7.7-7,14.7-40.1,33.7-63.6l-8.5-1
				c-18.7,16-45.3,47.5-45.1,71.3c0.2,29.2,54.9,9.7,57.9-28.5c2.4,7.1,17.4,24.3,17.4,24.3s-7.4-23.3-12.2-38.2
				C259.4,321.2,251.9,321.1,249.7,325.7z"/>
		</g>
	</g>
</g>
<g id="Zone_de_protection" class="st3">
	<g class="st4">
		<rect x="56.7" y="56.7" class="st5" width="453.5" height="614.5"/>
		<path class="st5" d="M226.8,56.7c0-31.3,25.4-56.7,56.7-56.7c31.3,0,56.7,25.4,56.7,56.7"/>
		<path class="st5" d="M340.2,671.2c0,31.3-25.4,56.7-56.7,56.7c-31.3,0-56.7-25.4-56.7-56.7"/>
		<path class="st5" d="M510.2,307.2c31.3,0,56.7,25.4,56.7,56.7c0,31.3-25.4,56.7-56.7,56.7"/>
		<path class="st5" d="M56.7,420.6C25.4,420.6,0,395.3,0,363.9c0-31.3,25.4-56.7,56.7-56.7"/>
	</g>
</g>
</svg>
